<svg width="193" height="230" fill="none" opacity=".6" id="Layer_1" data-name="Layer 1" xmlns="http://www.w3.org/2000/svg" xmlns:xlink="http://www.w3.org/1999/xlink" viewBox="0 0 193 230"><defs><style>.cls-1{fill:none;clip-rule:evenodd;}.cls-2{opacity:0.1;}.cls-3{clip-path:url(#clip-path);}.cls-4{fill:url(#linear-gradient);}</style><clipPath id="clip-path"><path class="cls-1" d="M66.09,107.38a63.49,63.49,0,0,0-22-13.3s28.08,14.69,36.06,57.62c0,0-55.65,11.21-61.19-81.6,0,0,75.8,0,84.39,62.26,0,0,15-37.12,70.73-26.29,0,0-2.8,40.22-51,47.18,0,0-.81-21.24,26.87-36,0,0-42.3.77-42.3,77.35v1.11a45,45,0,0,0-7.83,13.06,45.37,45.37,0,0,0-7.24-12.35v-1.82c0-19.89-.15-62.72-26.44-87.25m35.49-1.31C97,93.79,91,62.45,137.84,43.9c0,0,11.57,56.68-28.37,66.33-1.21-12.68,4-31.07,11.57-40.13C112,76.44,104,93.28,101.58,106.07Z"/></clipPath><linearGradient id="linear-gradient" x1="-6551.35" y1="-163.95" x2="-6550.83" y2="-163.95" gradientTransform="translate(49421.74 -2095016.99) rotate(-90) scale(319.82 300.86)" gradientUnits="userSpaceOnUse"><stop offset="0" stop-color="#0e7139"/><stop offset="1" stop-color="#a7cf38"/></linearGradient></defs><title>mờ copy</title><g class="cls-2"><g class="cls-3"><rect class="cls-4" x="18.94" y="43.9" width="155.12" height="164.9"/></g></g></svg>