<svg id="Layer_1" data-name="Layer 1" xmlns="http://www.w3.org/2000/svg" xmlns:xlink="http://www.w3.org/1999/xlink" viewBox="0 0 64 64"><defs><style>.cls-1{fill:none;clip-rule:evenodd;}.cls-2{clip-path:url(#clip-path);}.cls-3{fill:url(#linear-gradient);}</style><clipPath id="clip-path"><path class="cls-1" d="M23,26.41a18.84,18.84,0,0,0-6.48-3.92s8.27,4.33,10.62,17c0,0-16.39,3.3-18-24,0,0,22.32,0,24.85,18.34,0,0,4.41-10.93,20.83-7.74,0,0-.82,11.84-15,13.89,0,0-.23-6.25,7.92-10.59,0,0-12.46.23-12.46,22.78v.33A13.46,13.46,0,0,0,33,56.28a13.17,13.17,0,0,0-2.13-3.63v-.54c0-5.86,0-18.47-7.79-25.7M33.5,26c-1.34-3.62-3.12-12.85,10.68-18.31,0,0,3.4,16.69-8.36,19.53-.36-3.73,1.16-9.15,3.41-11.82C36.56,17.3,34.21,22.26,33.5,26Z"/></clipPath><linearGradient id="linear-gradient" x1="-6917.42" y1="-245.94" x2="-6917.26" y2="-245.94" gradientTransform="translate(74026.9 -2212244.54) rotate(-90) scale(319.82 300.86)" gradientUnits="userSpaceOnUse"><stop offset="0" stop-color="#0e7139"/><stop offset="1" stop-color="#a7cf38"/></linearGradient></defs><title>64x64 copy</title><g class="cls-2"><rect class="cls-3" x="9.16" y="7.72" width="45.69" height="48.57"/></g></svg>