<svg id="Layer_1" data-name="Layer 1" xmlns="http://www.w3.org/2000/svg" xmlns:xlink="http://www.w3.org/1999/xlink" 
width="193" height="230" fill="none" opacity=".6" viewBox="0 0 193 230"><defs><style>.cls-1{fill:none;clip-rule:evenodd;}.cls-2{opacity:0.3;}.cls-3{fill:#eeedee;}.cls-4{fill:#f15a2c;}.cls-5{opacity:0.6;}.cls-6{fill:#fff;}.cls-7{fill:#6e4d42;}.cls-8{opacity:0.1;}.cls-9{clip-path:url(#clip-path);}.cls-10{fill:url(#linear-gradient);}.cls-11{fill:url(#linear-gradient-2);}.cls-12{fill:url(#linear-gradient-3);}.cls-13{fill:url(#linear-gradient-4);}</style><clipPath id="clip-path"><path class="cls-1" d="M87.49,135.3a17.49,17.49,0,0,0-6.07-3.66s7.74,4.05,9.94,15.87c0,0-15.34,3.09-16.86-22.48,0,0,20.88,0,23.25,17.16,0,0,4.12-10.23,19.49-7.25,0,0-.77,11.08-14.06,13,0,0-.23-5.85,7.4-9.91,0,0-11.65.21-11.65,21.31v.31a12.5,12.5,0,0,0-2.16,3.6,12.42,12.42,0,0,0-2-3.4v-.51c0-5.48,0-17.28-7.28-24m9.78-.36c-1.26-3.38-2.92-12,10-17.13,0,0,3.19,15.62-7.82,18.28-.33-3.5,1.09-8.56,3.19-11.06C100.13,126.78,97.93,131.42,97.27,134.94Z"/></clipPath><linearGradient id="linear-gradient" x1="-6865.43" y1="22.2" x2="-6865.29" y2="22.2" gradientTransform="translate(-6584.32 -2195512.71) rotate(-90) scale(319.82 300.86)" gradientUnits="userSpaceOnUse"><stop offset="0" stop-color="#0e7139"/><stop offset="1" stop-color="#a7cf38"/></linearGradient><linearGradient id="linear-gradient-2" x1="81.44" y1="157.51" x2="138.06" y2="107.75" gradientUnits="userSpaceOnUse"><stop offset="0" stop-color="#108040"/><stop offset="1" stop-color="#e5e875"/></linearGradient><linearGradient id="linear-gradient-3" x1="60.53" y1="133.71" x2="117.15" y2="83.96" xlink:href="#linear-gradient-2"/><linearGradient id="linear-gradient-4" x1="72.81" y1="147.68" x2="129.43" y2="97.93" xlink:href="#linear-gradient-2"/></defs><title>193x230</title><g class="cls-2"><path class="cls-3" d="M16.37,184.51a10.74,10.74,0,0,0,7.57,13.17l20.45,5.52a8.82,8.82,0,0,0,9.83-4.1c7.09-11.78,21.69-7.84,21.69-7.84,11.92,3.21,14.37,11.87,14.54,17.9a8.91,8.91,0,0,0,6.64,8.27l20.5,5.53a10.73,10.73,0,0,0,13.16-7.57L165,88.67,50.58,57.79Z"/><path class="cls-4" d="M102.29,21.05a8.81,8.81,0,0,0-6.43-8.49L75.41,7a10.74,10.74,0,0,0-13.17,7.57L50.58,57.79,165,88.67l11.66-43.18a10.74,10.74,0,0,0-7.57-13.17l-20.49-5.53a8.9,8.9,0,0,0-9.9,3.8C135.48,35.72,129,42,117.08,38.74,117.08,38.74,102.49,34.8,102.29,21.05Z"/><g class="cls-5"><path class="cls-6" d="M138.66,30.59C135.48,35.72,129,42,117.08,38.74a24.4,24.4,0,0,1-6.54-3.14c2,11.46,14.53,14.85,14.53,14.85,11.91,3.22,18.39-3,21.57-8.16a8.92,8.92,0,0,1,9.9-3.8L176.9,44a10.73,10.73,0,0,0-7.85-11.67l-20.49-5.53A8.9,8.9,0,0,0,138.66,30.59Z"/></g><g class="cls-5"><path class="cls-6" d="M62.24,14.61,50.58,57.79,61,60.6l9.25-34.29a10.74,10.74,0,0,1,13.17-7.56l19.17,5.17a17.47,17.47,0,0,1-.27-2.87,8.81,8.81,0,0,0-6.43-8.49L75.41,7A10.74,10.74,0,0,0,62.24,14.61Z"/></g><path class="cls-7" d="M120.41,227.89a15.29,15.29,0,0,1-4-.53l-20.5-5.53a13.53,13.53,0,0,1-10-12.54c-.2-7.2-3.86-11.66-11.18-13.64-.44-.11-11.4-2.83-16.6,5.8A13.29,13.29,0,0,1,43.2,207.6l-20.45-5.52A15.33,15.33,0,0,1,12,183.32L57.84,13.42A15.31,15.31,0,0,1,76.59,2.64L97.05,8.16A13.3,13.3,0,0,1,106.84,21c.15,10.08,11,13.24,11.45,13.37,7.3,2,12.7,0,16.5-6.16a13.54,13.54,0,0,1,15-5.8l20.49,5.53A15.29,15.29,0,0,1,181,46.68l-45.87,169.9a15.3,15.3,0,0,1-14.74,11.31ZM70.5,186.05a25.82,25.82,0,0,1,6.6.81C92.25,191,94.82,202.51,95,209a4.36,4.36,0,0,0,3.28,4l20.49,5.53a6.17,6.17,0,0,0,7.59-4.35L172.23,44.3a6.19,6.19,0,0,0-4.36-7.58l-20.5-5.53a4.35,4.35,0,0,0-4.84,1.8c-3.44,5.55-11.48,14.24-26.63,10.15-6.2-1.67-18-8.43-18.17-22A4.24,4.24,0,0,0,94.67,17h0L74.22,11.44a6.19,6.19,0,0,0-7.58,4.36L20.77,185.7a6.18,6.18,0,0,0,4.36,7.58l20.45,5.52a4.25,4.25,0,0,0,4.74-2.05C55.38,188.35,63.85,186.05,70.5,186.05Z"/><line class="cls-3" x1="50.5" y1="57.1" x2="116.7" y2="74.97"/><path class="cls-7" d="M116.7,79a3.77,3.77,0,0,1-1-.14L49.47,61a4,4,0,1,1,2.07-7.69l66.2,17.87a4,4,0,0,1-1,7.83Z"/><line class="cls-3" x1="145.44" y1="82.16" x2="165.03" y2="87.45"/><path class="cls-7" d="M165,91.44a3.77,3.77,0,0,1-1-.14L144.4,86a4,4,0,1,1,2.08-7.69l19.59,5.29a4,4,0,0,1-1,7.83Z"/><g class="cls-8"><path class="cls-7" d="M54.22,199.1c7.09-11.78,21.69-7.84,21.69-7.84,11.92,3.21,14.37,11.87,14.54,17.9a8.91,8.91,0,0,0,6.64,8.27l20.5,5.53a10.73,10.73,0,0,0,13.16-7.57L165,88.67l11.66-43.18a10.73,10.73,0,0,0-7.14-13l-6,2.1S117.62,186.84,18.72,180.16l-2,11.08a10.7,10.7,0,0,0,7.18,6.44l20.45,5.52A8.82,8.82,0,0,0,54.22,199.1Z"/></g><g class="cls-9"><rect class="cls-10" x="74.5" y="117.81" width="42.74" height="45.44"/></g><path class="cls-11" d="M119.5,108c8.12,11.08,9.2,28.56-.21,40.45-11.17,14.12-32.35,15.59-45.69,5a29.39,29.39,0,0,1-9.53-13.44,33.43,33.43,0,1,0,55.43-32Z"/><path class="cls-12" d="M96.55,100.21c-15.2,1.4-21.13,11.43-21.13,11.43,2.71,4.34,10.16,5.26,15,3.76a33.21,33.21,0,0,0,8.1-4.36,27,27,0,0,1,8.21-4.1c3-.72,6.41-.35,8.71,1.7A28.3,28.3,0,0,0,88.8,92.1,19.51,19.51,0,0,0,77.14,96a13.48,13.48,0,0,0-4.91,10.72C81.53,97.27,96.55,100.21,96.55,100.21Z"/><path class="cls-13" d="M93.23,159.26a29.53,29.53,0,0,0,29.53-29.52c0-.32,0-.64,0-1a27.65,27.65,0,1,1-28.56-28.55l-1,0a29.53,29.53,0,0,0,0,59.05Z"/></g></svg>