<svg id="Layer_1" data-name="Layer 1" xmlns="http://www.w3.org/2000/svg" xmlns:xlink="http://www.w3.org/1999/xlink" viewBox="0 0 300 300"><defs><style>.cls-1{fill:none;clip-rule:evenodd;}.cls-2{fill:#eeedee;}.cls-3{fill:#f15a2c;}.cls-4{opacity:0.6;}.cls-5{fill:#fff;}.cls-6{fill:#6e4d42;}.cls-7{opacity:0.1;}.cls-8{clip-path:url(#clip-path);}.cls-9{fill:url(#linear-gradient);}.cls-10{fill:url(#linear-gradient-2);}.cls-11{fill:url(#linear-gradient-3);}.cls-12{fill:url(#linear-gradient-4);}</style><clipPath id="clip-path"><path class="cls-1" d="M150.43,172.48a19.43,19.43,0,0,0-6.71-4.06s8.56,4.48,11,17.58c0,0-17,3.42-18.67-24.89,0,0,23.12,0,25.74,19,0,0,4.57-11.33,21.58-8,0,0-.85,12.27-15.56,14.39,0,0-.25-6.48,8.19-11,0,0-12.9.23-12.9,23.6v.34a13.61,13.61,0,0,0-2.39,4,13.93,13.93,0,0,0-2.21-3.77v-.55c0-6.07,0-19.14-8.07-26.62m10.83-.4c-1.39-3.75-3.22-13.31,11.06-19,0,0,3.53,17.29-8.65,20.24-.37-3.87,1.2-9.48,3.53-12.25C164.44,163,162,168.18,161.26,172.08Z"/></clipPath><linearGradient id="linear-gradient" x1="-2710.48" y1="-1992.08" x2="-2710.33" y2="-1992.08" gradientTransform="translate(599497.03 -866653.11) rotate(-90) scale(319.82 300.86)" gradientUnits="userSpaceOnUse"><stop offset="0" stop-color="#0e7139"/><stop offset="1" stop-color="#a7cf38"/></linearGradient><linearGradient id="linear-gradient-2" x1="143.74" y1="197.07" x2="206.43" y2="141.97" gradientUnits="userSpaceOnUse"><stop offset="0" stop-color="#108040"/><stop offset="1" stop-color="#e5e875"/></linearGradient><linearGradient id="linear-gradient-3" x1="120.58" y1="170.72" x2="183.27" y2="115.63" xlink:href="#linear-gradient-2"/><linearGradient id="linear-gradient-4" x1="134.18" y1="186.19" x2="196.87" y2="131.1" xlink:href="#linear-gradient-2"/></defs><title>Artboard 6</title><path class="cls-2" d="M71.69,227a11.9,11.9,0,0,0,8.38,14.58l22.64,6.11a9.76,9.76,0,0,0,10.88-4.54c7.86-13.05,24-8.69,24-8.69,13.2,3.57,15.92,13.15,16.1,19.83a9.86,9.86,0,0,0,7.36,9.15l22.69,6.13a11.89,11.89,0,0,0,14.58-8.38l37.88-140.31L109.57,86.66Z"/><path class="cls-3" d="M166.82,46a9.74,9.74,0,0,0-7.12-9.39l-22.64-6.12a11.89,11.89,0,0,0-14.58,8.38L109.57,86.66l126.65,34.19L249.13,73a11.9,11.9,0,0,0-8.38-14.58l-22.7-6.12a9.86,9.86,0,0,0-11,4.21c-3.52,5.68-10.69,12.59-23.89,9C183.2,65.57,167,61.2,166.82,46Z"/><g class="cls-4"><path class="cls-5" d="M207.09,56.54c-3.52,5.68-10.69,12.59-23.89,9A27.25,27.25,0,0,1,176,62.09C178.16,74.77,192,78.53,192,78.53c13.2,3.56,20.37-3.35,23.89-9a9.85,9.85,0,0,1,11-4.21l22.55,6.09a11.9,11.9,0,0,0-8.69-12.93l-22.7-6.12A9.86,9.86,0,0,0,207.09,56.54Z"/></g><g class="cls-4"><path class="cls-5" d="M122.48,38.84,109.57,86.66l11.5,3.1,10.25-38a11.89,11.89,0,0,1,14.58-8.38l21.22,5.73a21.19,21.19,0,0,1-.3-3.18,9.76,9.76,0,0,0-7.12-9.4l-22.64-6.11A11.89,11.89,0,0,0,122.48,38.84Z"/></g><path class="cls-6" d="M186.89,275a17.25,17.25,0,0,1-4.44-.59l-22.7-6.13a15,15,0,0,1-11.08-13.88c-.22-8-4.27-12.91-12.37-15.1-.49-.13-12.63-3.14-18.39,6.42a14.7,14.7,0,0,1-16.51,6.81l-22.64-6.12a17,17,0,0,1-11.94-20.76L117.61,37.53a16.94,16.94,0,0,1,20.76-11.94L161,31.71A14.7,14.7,0,0,1,171.86,45.9C172,57.06,184,60.56,184.54,60.7c8.08,2.19,14.06-.05,18.27-6.82a15,15,0,0,1,16.56-6.42l22.69,6.13A16.94,16.94,0,0,1,254,74.35L203.21,262.47A17,17,0,0,1,186.89,275Zm-55.26-46.33a29,29,0,0,1,7.3.89c16.78,4.54,19.62,17.33,19.82,24.56a4.83,4.83,0,0,0,3.63,4.42l22.69,6.13a6.84,6.84,0,0,0,8.4-4.83L244.26,71.72a6.86,6.86,0,0,0-4.83-8.4L216.74,57.2a4.83,4.83,0,0,0-5.36,2c-3.81,6.15-12.71,15.77-29.49,11.25C175,68.58,162,61.1,161.78,46.05a4.73,4.73,0,0,0-3.39-4.61h0l-22.65-6.11a6.82,6.82,0,0,0-8.39,4.83L76.56,228.28a6.86,6.86,0,0,0,4.82,8.4L104,242.79a4.69,4.69,0,0,0,5.24-2.27C114.88,231.21,124.26,228.67,131.63,228.67Z"/><line class="cls-2" x1="109.48" y1="85.89" x2="182.78" y2="105.68"/><path class="cls-6" d="M182.78,110.1a4.14,4.14,0,0,1-1.15-.16l-73.3-19.79a4.41,4.41,0,1,1,2.3-8.52l73.3,19.79a4.42,4.42,0,0,1-1.15,8.68Z"/><line class="cls-2" x1="214.6" y1="113.64" x2="236.29" y2="119.5"/><path class="cls-6" d="M236.29,123.91a4.6,4.6,0,0,1-1.15-.15l-21.69-5.86a4.41,4.41,0,1,1,2.3-8.52l21.69,5.86a4.41,4.41,0,0,1-1.15,8.67Z"/><g class="cls-7"><path class="cls-6" d="M113.59,243.12c7.86-13.05,24-8.69,24-8.69,13.2,3.57,15.92,13.15,16.1,19.83a9.86,9.86,0,0,0,7.36,9.15l22.69,6.13a11.89,11.89,0,0,0,14.58-8.38l37.88-140.31L249.13,73a11.87,11.87,0,0,0-7.91-14.42l-6.65,2.33S183.8,229.54,74.29,222.14l-2.17,12.28a11.86,11.86,0,0,0,7.95,7.13l22.64,6.11A9.76,9.76,0,0,0,113.59,243.12Z"/></g><g class="cls-8"><rect class="cls-9" x="136.05" y="153.11" width="47.33" height="50.31"/></g><path class="cls-10" d="M185.87,142.26c9,12.27,10.19,31.63-.22,44.79-12.37,15.63-35.82,17.26-50.59,5.57a32.55,32.55,0,0,1-10.56-14.89,37,37,0,1,0,61.37-35.47Z"/><path class="cls-11" d="M160.47,133.62c-16.84,1.55-23.39,12.66-23.39,12.66,3,4.8,11.24,5.82,16.57,4.16,3.25-1,6.12-2.95,9-4.83s5.79-3.72,9.1-4.53,7.09-.39,9.63,1.87a31.3,31.3,0,0,0-29.46-18.3,21.5,21.5,0,0,0-12.9,4.29,14.91,14.91,0,0,0-5.44,11.87C143.84,130.37,160.47,133.62,160.47,133.62Z"/><path class="cls-12" d="M156.79,199a32.7,32.7,0,0,0,32.7-32.69c0-.36,0-.71,0-1.06a30.62,30.62,0,1,1-31.62-31.62l-1.06,0a32.7,32.7,0,0,0,0,65.39Z"/></svg>