<svg id="Layer_1" data-name="Layer 1" xmlns="http://www.w3.org/2000/svg" xmlns:xlink="http://www.w3.org/1999/xlink" viewBox="0 0 58.34 64"><defs><style>.cls-1{fill:none;clip-rule:evenodd;}.cls-2{clip-path:url(#clip-path);}.cls-3{fill:url(#linear-gradient);}.cls-4{fill:url(#linear-gradient-2);}.cls-5{fill:url(#linear-gradient-3);}.cls-6{fill:url(#linear-gradient-4);}</style><clipPath id="clip-path"><path class="cls-1" d="M21.19,37.39A14.71,14.71,0,0,0,16,34.28s6.57,3.43,8.44,13.48c0,0-13,2.63-14.32-19.1,0,0,17.74,0,19.75,14.58,0,0,3.5-8.69,16.56-6.16,0,0-.66,9.42-11.95,11.05,0,0-.19-5,6.29-8.42,0,0-9.9.18-9.9,18.1v.26a10.63,10.63,0,0,0-1.83,3.06,10.67,10.67,0,0,0-1.7-2.89v-.43c0-4.65,0-14.68-6.19-20.42m8.31-.31C28.44,34.21,27,26.87,38,22.53c0,0,2.71,13.27-6.64,15.52a14.74,14.74,0,0,1,2.71-9.39C31.94,30.15,30.07,34.09,29.5,37.08Z"/></clipPath><linearGradient id="linear-gradient" x1="-6924.83" y1="-155.8" x2="-6924.71" y2="-155.8" gradientTransform="translate(46903.34 -2214610.88) rotate(-90) scale(319.82 300.86)" gradientUnits="userSpaceOnUse"><stop offset="0" stop-color="#0e7139"/><stop offset="1" stop-color="#a7cf38"/></linearGradient><linearGradient id="linear-gradient-2" x1="16.06" y1="56.25" x2="64.16" y2="13.99" gradientUnits="userSpaceOnUse"><stop offset="0" stop-color="#108040"/><stop offset="1" stop-color="#e5e875"/></linearGradient><linearGradient id="linear-gradient-3" x1="-1.71" y1="36.04" x2="46.39" y2="-6.23" xlink:href="#linear-gradient-2"/><linearGradient id="linear-gradient-4" x1="8.72" y1="47.91" x2="56.82" y2="5.64" xlink:href="#linear-gradient-2"/></defs><title>logo sat vien</title><g class="cls-2"><rect class="cls-3" x="10.16" y="22.53" width="36.31" height="38.6"/></g><path class="cls-4" d="M48.39,14.21c6.9,9.41,7.81,24.26-.18,34.36-9.49,12-27.48,13.24-38.81,4.27A24.92,24.92,0,0,1,1.3,41.42,28.4,28.4,0,1,0,48.39,14.21Z"/><path class="cls-5" d="M28.9,7.58C16,8.77,11,17.28,11,17.28c2.29,3.69,8.62,4.47,12.71,3.2a28.23,28.23,0,0,0,6.88-3.7,22.84,22.84,0,0,1,7-3.48,8.24,8.24,0,0,1,7.39,1.44,24,24,0,0,0-22.6-14A16.53,16.53,0,0,0,12.4,4a11.39,11.39,0,0,0-4.16,9.1C16.14,5.08,28.9,7.58,28.9,7.58Z"/><path class="cls-6" d="M26.07,57.74A25.08,25.08,0,0,0,51.16,32.66c0-.27,0-.54,0-.81A23.49,23.49,0,1,1,26.88,7.59h-.81a25.08,25.08,0,0,0,0,50.16Z"/></svg>